<svg width="22" height="22" viewBox="0 0 22 22" fill="none" xmlns="http://www.w3.org/2000/svg">
<mask id="mask0_1_4070" style="mask-type:luminance" maskUnits="userSpaceOnUse" x="0" y="0" width="22" height="22">
<path d="M0 0H22V22H0V0Z" fill="white"/>
</mask>
<g mask="url(#mask0_1_4070)">
<mask id="mask1_1_4070" style="mask-type:luminance" maskUnits="userSpaceOnUse" x="0" y="0" width="22" height="22">
<path d="M0 0H22V22H0V0Z" fill="white"/>
</mask>
<g mask="url(#mask1_1_4070)">
<path d="M17.6454 3.668H15.3541V2.52233C15.3541 2.14657 15.0425 1.83496 14.6667 1.83496C14.291 1.83496 13.9793 2.14657 13.9793 2.52233V3.668H8.02192V2.52233C8.02192 2.14657 7.71031 1.83496 7.33455 1.83496C6.95879 1.83496 6.64714 2.14657 6.64714 2.52233V3.668H4.35584C3.47602 3.668 2.75195 4.39206 2.75195 5.27189V17.645C2.75195 18.5248 3.47602 19.2489 4.35584 19.2489H17.6454C18.5253 19.2489 19.2494 18.5248 19.2494 17.645V5.27189C19.2494 4.39206 18.5253 3.668 17.6454 3.668ZM4.3558 5.04278H17.6454C17.7738 5.04278 17.8746 5.14358 17.8746 5.27189V7.33408H4.12673V5.27189C4.12673 5.14358 4.22749 5.04278 4.3558 5.04278ZM17.6453 17.8741H4.35584C4.22754 17.8741 4.12673 17.7733 4.12673 17.6449V8.70886H17.8745V17.6449C17.8745 17.7733 17.7737 17.8741 17.6454 17.8741H17.6453Z" fill="#676767"/>
<path d="M7.33449 11C6.83042 11 6.41797 11.4124 6.41797 11.9165C6.41797 12.4206 6.83042 12.833 7.33449 12.833H7.34364C7.84775 12.833 8.26016 12.4206 8.26016 11.9165C8.25101 11.4124 7.8386 11 7.33449 11ZM11.0006 11C10.4873 11 10.084 11.4124 10.084 11.9165C10.084 12.4206 10.4965 12.833 11.0006 12.833C11.5046 12.833 11.9171 12.4206 11.9171 11.9165C11.9171 11.4124 11.5138 11 11.0006 11ZM14.6666 11C14.1534 11 13.7501 11.4124 13.7501 11.9165C13.7501 12.4206 14.1625 12.833 14.6666 12.833C15.1707 12.833 15.5832 12.4206 15.5832 11.9165C15.5832 11.4124 15.1707 11 14.6666 11ZM7.33449 14.2078C6.83042 14.2078 6.41797 14.6202 6.41797 15.1243C6.41797 15.6284 6.83042 16.0409 7.33449 16.0409H7.34364C7.84775 16.0409 8.26016 15.6284 8.26016 15.1243C8.25101 14.6202 7.8386 14.2078 7.33449 14.2078ZM11.0006 14.2078C10.4873 14.2078 10.084 14.6202 10.084 15.1243C10.084 15.6284 10.4965 16.0409 11.0006 16.0409C11.5046 16.0409 11.9171 15.6284 11.9171 15.1243C11.9171 14.6202 11.5138 14.2078 11.0006 14.2078Z" fill="#676767"/>
</g>
</g>
</svg>
