<svg width="160" height="19" viewBox="0 0 160 19" fill="none" xmlns="http://www.w3.org/2000/svg">
<path d="M9.98441 0.576172C12.2164 0.576172 14.4484 1.44017 15.7204 3.07217L12.8404 5.42417C12.0244 4.44017 10.8964 4.03217 9.62441 4.03217C6.96041 4.03217 4.70441 6.16817 4.70441 9.50417C4.70441 12.3362 6.52841 14.9762 9.50441 14.9762C10.9684 14.9762 12.1924 14.3762 13.0084 13.1522L16.1284 15.4802C14.7844 17.4482 12.3124 18.4322 9.98441 18.4322C4.65641 18.4322 0.816406 14.9282 0.816406 9.50417C0.816406 4.12817 4.63241 0.576172 9.98441 0.576172Z" fill="white"/>
<path d="M27.5341 18.0002H23.4061L30.7501 1.00817H33.8461L41.2381 18.0002H37.0141L35.5501 14.4002H28.9501L27.5341 18.0002ZM32.1901 5.95217L30.1261 11.2322H34.2781L32.1901 5.95217Z" fill="white"/>
<path d="M53.6912 18.0002H49.9472V1.00817H56.6432C59.7152 1.00817 62.9312 2.04017 62.9312 6.16817C62.9312 8.66417 61.5632 10.3922 59.2592 10.8242L63.5792 18.0002H59.0912L55.5392 11.2082H53.6912V18.0002ZM53.6912 8.04017H56.0192C57.7472 8.04017 59.0432 7.75217 59.0432 6.14417C59.0432 4.75217 58.0112 4.17617 56.2352 4.17617H53.6912V8.04017Z" fill="white"/>
<path d="M72.5097 18.0002V1.00817H76.2537V7.34417H83.5257V1.00817H87.2697V18.0002H83.5257V10.6562H76.2537V18.0002H72.5097Z" fill="white"/>
<path d="M97.8646 18.0002V1.00817H109.409V4.46417H101.609V7.63217H108.977V11.0882H101.609V14.5442H109.841V18.0002H97.8646Z" fill="white"/>
<path d="M123.582 18.0002H119.838V1.00817H126.534C129.606 1.00817 132.822 2.04017 132.822 6.16817C132.822 8.66417 131.454 10.3922 129.15 10.8242L133.47 18.0002H128.982L125.43 11.2082H123.582V18.0002ZM123.582 8.04017H125.91C127.638 8.04017 128.934 7.75217 128.934 6.14417C128.934 4.75217 127.902 4.17617 126.126 4.17617H123.582V8.04017Z" fill="white"/>
<path d="M150.656 0.576172C156.056 0.576172 159.824 4.10417 159.824 9.50417C159.824 14.9042 155.984 18.4322 150.656 18.4322C145.304 18.4322 141.488 14.9282 141.488 9.50417C141.488 4.08017 145.304 0.576172 150.656 0.576172ZM145.376 9.50417C145.376 12.6962 147.464 14.9762 150.656 14.9762C153.824 14.9762 155.936 12.6962 155.936 9.50417C155.936 6.31217 153.824 4.03217 150.632 4.03217C147.488 4.03217 145.376 6.28817 145.376 9.50417Z" fill="white"/>
</svg>
