<svg width="22" height="22" viewBox="0 0 22 22" fill="none" xmlns="http://www.w3.org/2000/svg">
<mask id="mask0_1_4056" style="mask-type:luminance" maskUnits="userSpaceOnUse" x="0" y="0" width="22" height="22">
<path d="M0 0H22V22H0V0Z" fill="white"/>
</mask>
<g mask="url(#mask0_1_4056)">
<mask id="mask1_1_4056" style="mask-type:luminance" maskUnits="userSpaceOnUse" x="0" y="0" width="22" height="22">
<path d="M0 0H22V22H0V0Z" fill="white"/>
</mask>
<g mask="url(#mask1_1_4056)">
<path d="M18.9052 3.69303C18.8 3.63274 18.6808 3.60128 18.5596 3.60182C18.4384 3.60237 18.3194 3.63489 18.2148 3.69611C15.9503 5.02196 13.6398 4.34555 11.1936 3.62954C8.57476 2.86292 5.86682 2.07022 3.08972 3.69611C2.98601 3.75682 2.9 3.84362 2.84023 3.94787C2.78047 4.05212 2.74902 4.1702 2.74902 4.29037V18.5634C2.74902 18.9437 3.05729 19.252 3.43762 19.252C3.81796 19.252 4.12622 18.9437 4.12622 18.5634V14.3901C6.28196 13.3165 8.4831 13.9608 10.8067 14.6409C12.3015 15.0785 13.825 15.5245 15.3742 15.5245C16.5391 15.5245 17.7187 15.2721 18.9106 14.5743C19.0143 14.5136 19.1003 14.4268 19.1601 14.3225C19.2199 14.2183 19.2513 14.1002 19.2513 13.9801V4.29037C19.2513 4.16915 19.2193 4.05008 19.1585 3.94519C19.0978 3.8403 19.0104 3.75332 18.9052 3.69303ZM17.8741 13.5702C15.7185 14.6436 13.5172 13.9993 11.1936 13.3192C9.69878 12.8816 8.17532 12.4356 6.62613 12.4356C5.80003 12.4356 4.96618 12.5626 4.12622 12.8853V4.70019C6.28183 3.62676 8.4831 4.2711 10.8067 4.95125C13.0986 5.62216 15.459 6.31288 17.8741 5.38509V13.5702Z" fill="#676767"/>
</g>
</g>
</svg>
