<svg xmlns="http://www.w3.org/2000/svg" width="24" height="24" viewBox="0 0 24 24" fill="none">
  <g clip-path="url(#clip0_1_4021)">
    <mask id="mask0_1_4021" style="mask-type:luminance" maskUnits="userSpaceOnUse" x="0" y="0" width="24" height="24">
      <path d="M0 0H24V24H0V0Z" fill="white"/>
    </mask>
    <g mask="url(#mask0_1_4021)">
      <mask id="mask1_1_4021" style="mask-type:luminance" maskUnits="userSpaceOnUse" x="0" y="0" width="24" height="24">
        <path d="M0 0H24V24H0V0Z" fill="white"/>
      </mask>
      <g mask="url(#mask1_1_4021)">
        <path d="M18.939 9.9269L17.929 9.93752L17.9049 7.63767C17.8717 4.47782 15.2848 1.93484 12.125 1.96804L11.655 1.97298C8.5152 2.00597 5.88322 4.68376 5.91631 7.83363L5.93974 10.0635L4.93981 10.074C4.38986 10.0798 3.94457 10.5345 3.95034 11.0845L4.0344 19.084C4.05173 20.734 5.4158 22.0697 7.06575 22.0523L17.0652 21.9473C18.7152 21.9299 20.0509 20.5659 20.0335 18.9159L19.9495 10.9164C19.9437 10.3664 19.489 9.92112 18.939 9.9269ZM7.91622 7.81262C7.89457 5.75271 9.61615 3.99448 11.6759 3.9629L12.1459 3.95796C14.1958 3.93642 15.8834 5.59879 15.9049 7.64866L15.9292 9.95853L7.93965 10.0425L7.91622 7.81262ZM13.063 16.049C13.0432 16.0692 13.0234 16.0894 13.0035 16.0996L13.0234 17.9895C13.0292 18.5395 12.5839 18.9942 12.034 19C11.484 19.0057 11.0293 18.5605 11.0235 18.0105L11.0037 16.1206C10.9836 16.1108 10.9634 16.0911 10.9432 16.0713C10.8023 15.9336 10.69 15.7696 10.6125 15.5885C10.5351 15.4074 10.4942 15.2129 10.492 15.0159C10.491 14.916 10.5 14.8158 10.519 14.7257C10.5379 14.6254 10.567 14.5352 10.596 14.4448C10.6351 14.3545 10.6842 14.2639 10.7333 14.1834C10.7923 14.0928 10.8516 14.0221 10.9209 13.9514C11.2672 13.5978 11.7754 13.4324 12.2665 13.5273C12.3667 13.5462 12.457 13.5752 12.5473 13.6042C12.6377 13.6433 12.7282 13.6924 12.8088 13.7415C12.8894 13.8007 12.97 13.8599 13.0407 13.9291C13.1114 13.9984 13.1722 14.0678 13.2332 14.1571C13.284 14.2366 13.3349 14.3261 13.3659 14.4157C13.4068 14.5053 13.4378 14.595 13.4588 14.6948C13.4797 14.7845 13.4908 14.8845 13.4919 14.9844C13.4961 15.3844 13.34 15.7561 13.063 16.049Z" fill="#F3A94D"/>
      </g>
    </g>
  </g>
  <defs>
    <clipPath id="clip0_1_4021">
      <rect width="24" height="24" fill="white"/>
    </clipPath>
  </defs>
</svg>