<svg width="114" height="41" viewBox="0 0 114 41" fill="none" xmlns="http://www.w3.org/2000/svg">
<g clip-path="url(#clip0_1_4528)">
<path d="M92.9813 19.1723C97.8797 19.2806 101.888 24.1549 101.798 30.1124C101.798 32.9286 100.819 35.6366 99.2156 37.6946H108.745V40.8358H2.58281V37.6946H18.9703C15.4969 33.4702 15.4078 26.6462 18.8813 22.4218C22.3547 18.1974 27.9656 18.0891 31.4391 22.3135C34.9125 26.5379 35.0016 33.3619 31.5281 37.5863C31.5281 37.5863 31.5281 37.5863 31.4391 37.6946H86.6578C83.1844 33.4702 83.1844 26.6462 86.6578 22.4218C88.4391 20.3638 90.6656 19.2806 92.9813 19.1723ZM5.16563 31.4122L0 25.1297L2.58281 18.8473H5.16563L10.3313 15.7061H2.58281V12.5649L5.16563 9.42365L25.9172 6.28243H15.5859L33.7547 0H54.5063L77.8406 6.28243L70.0922 9.42365L64.9266 6.28243L54.4172 3.0329H41.4141L33.6656 6.17412V9.31533L43.9969 12.4565H69.9141L80.2453 9.31533H90.6656L108.834 15.5978L103.669 18.739H111.417L114 25.0214V28.1626L106.252 31.3038H114V34.4451H103.936C105.984 27.1878 102.778 19.1723 96.8109 16.6809C90.8438 14.1896 84.2531 18.0891 82.2047 25.3464C81.4031 28.2709 81.4031 31.4122 82.2047 34.3368H36.0703C38.1188 27.0795 34.9125 19.0639 28.9453 16.5726C22.9781 14.0813 16.3875 17.9808 14.3391 25.2381C13.6266 27.8377 13.5375 30.7623 14.1609 33.3619L5.16563 31.4122ZM92.9813 27.0795C91.6453 27.0795 90.5766 28.3793 90.5766 30.004C90.5766 31.6288 91.6453 32.9286 92.9813 32.9286C94.3172 32.9286 95.3859 31.6288 95.3859 30.004C95.3859 28.3793 94.3172 27.0795 92.9813 27.0795ZM25.2047 27.0795C23.8687 27.0795 22.8 28.3793 22.7109 30.004C22.6219 31.6288 23.7797 32.9286 25.1156 33.0369C26.4516 33.0369 27.5203 31.7371 27.6094 30.1124C27.6094 28.3793 26.5406 27.0795 25.2047 27.0795ZM92.9813 23.9382C90.2203 23.9382 87.9937 26.6462 87.9047 30.004C87.9047 33.3619 90.1313 36.0698 92.8922 36.1781C95.6531 36.1781 97.8797 33.4702 97.9688 30.1124C97.9688 26.6462 95.7422 23.9382 92.9813 23.9382ZM25.2047 23.9382C22.4437 23.9382 20.2172 26.6462 20.2172 30.004C20.2172 33.3619 22.4437 36.0698 25.2047 36.0698C27.9656 36.0698 30.2812 33.3619 30.2812 30.004C30.2812 26.6462 27.9656 23.9382 25.2047 23.9382Z" fill="#374360"/>
</g>
<defs>
<clipPath id="clip0_1_4528">
<rect width="114" height="41" fill="white"/>
</clipPath>
</defs>
</svg>
