<svg width="114" height="41" viewBox="0 0 114 41" fill="none" xmlns="http://www.w3.org/2000/svg">
<g clip-path="url(#clip0_1_4543)">
<path fill-rule="evenodd" clip-rule="evenodd" d="M87.1298 22.0294C88.7423 22.0239 90.3203 22.5681 91.6668 23.5939C93.0132 24.6197 94.0684 26.0817 94.7003 27.7971C95.3323 29.5125 95.513 31.4052 95.2199 33.2387C94.9269 35.0722 94.173 36.7652 93.0525 38.106H108.968V41.0412H2.53828V38.106H19.3088C18.1992 36.7628 17.4552 35.0724 17.1689 33.2447C16.8827 31.4169 17.0668 29.5322 17.6985 27.8243C18.3302 26.1164 19.3816 24.6607 20.7223 23.6376C22.063 22.6144 23.634 22.0691 25.2403 22.0691C26.8466 22.0691 28.4176 22.6144 29.7583 23.6376C31.099 24.6607 32.1504 26.1164 32.7821 27.8243C33.4138 29.5322 33.5979 31.4169 33.3117 33.2447C33.0254 35.0724 32.2814 36.7628 31.1719 38.106H81.1983C80.0868 36.7638 79.3407 35.0736 79.0527 33.2453C78.7647 31.417 78.9475 29.5312 79.5784 27.822C80.2093 26.1128 81.2605 24.6556 82.6014 23.6312C83.9423 22.6069 85.5139 22.0607 87.1209 22.0603L87.1298 22.0294ZM7.60594 35.1399H14.9625C14.4726 33.2832 14.3658 31.3196 14.6508 29.4066C14.9358 27.4936 15.6046 25.6845 16.6035 24.1244C17.6024 22.5642 18.9036 21.2966 20.4027 20.4231C21.9019 19.5496 23.5572 19.0946 25.2359 19.0946C26.9145 19.0946 28.5699 19.5496 30.069 20.4231C31.5681 21.2966 32.8694 22.5642 33.8683 24.1244C34.8671 25.6845 35.5359 27.4936 35.8209 29.4066C36.1059 31.3196 35.9991 33.2832 35.5092 35.1399H76.852C76.3621 33.2832 76.2554 31.3196 76.5404 29.4066C76.8253 27.4936 77.4941 25.6845 78.493 24.1244C79.4919 22.5642 80.7931 21.2966 82.2923 20.4231C83.7914 19.5496 85.4467 19.0946 87.1254 19.0946C88.8041 19.0946 90.4594 19.5496 91.9585 20.4231C93.4577 21.2966 94.7589 22.5642 95.7578 24.1244C96.7567 25.6845 97.4255 27.4936 97.7104 29.4066C97.9954 31.3196 97.8887 33.2832 97.3988 35.1399H108.977L111.471 32.2253L103.865 29.3004H114V23.4403L103.865 20.5051V17.5803L111.471 20.5154L103.865 14.6554L91.1911 11.7202H63.3145L22.7733 14.6554L27.8409 8.79528L37.9762 2.93519L43.0439 11.7305L40.5145 2.93519H55.7175L60.7852 8.79528H63.3234L58.2469 2.93519L65.8528 5.87038L70.9205 8.80558H78.5264L65.8528 2.93519L58.2469 0H37.9762L27.8409 2.93519L12.638 8.79528L5.03203 14.6554L2.49375 20.5154H5.03203L10.0997 17.5803L12.638 20.5154L0 23.4197L2.53828 29.2798H7.60594L5.06766 32.215L7.60594 35.1502V35.1399ZM87.1298 29.3519C86.7599 29.3519 86.3983 29.4788 86.0908 29.7164C85.7832 29.9541 85.5435 30.2918 85.4019 30.687C85.2603 31.0822 85.2233 31.5171 85.2955 31.9366C85.3676 32.3562 85.5458 32.7415 85.8073 33.044C86.0689 33.3465 86.4022 33.5525 86.765 33.6359C87.1278 33.7194 87.5038 33.6765 87.8456 33.5128C88.1873 33.3491 88.4794 33.0719 88.685 32.7163C88.8905 32.3606 89.0002 31.9425 89.0002 31.5147C89.0002 30.9411 88.8031 30.391 88.4524 29.9854C88.1016 29.5798 87.6259 29.3519 87.1298 29.3519ZM25.2314 29.3519C24.8615 29.3519 24.4999 29.4788 24.1923 29.7164C23.8847 29.9541 23.645 30.2918 23.5035 30.687C23.3619 31.0822 23.3249 31.5171 23.397 31.9366C23.4692 32.3562 23.6473 32.7415 23.9089 33.044C24.1705 33.3465 24.5037 33.5525 24.8665 33.6359C25.2293 33.7194 25.6054 33.6765 25.9471 33.5128C26.2889 33.3491 26.581 33.0719 26.7865 32.7163C26.992 32.3606 27.1017 31.9425 27.1017 31.5147C27.1017 30.9411 26.9047 30.391 26.5539 29.9854C26.2032 29.5798 25.7274 29.3519 25.2314 29.3519ZM87.1298 26.4167C86.2575 26.4167 85.4048 26.716 84.6796 27.2766C83.9545 27.8372 83.3894 28.634 83.056 29.5662C82.7226 30.4983 82.6358 31.5239 82.8066 32.5131C82.9775 33.5022 83.3982 34.4106 84.0157 35.1231C84.6331 35.8357 85.4195 36.3204 86.2752 36.516C87.131 36.7115 88.0177 36.6091 88.8231 36.2216C89.6285 35.8342 90.3164 35.1792 90.7998 34.3395C91.2831 33.4998 91.5402 32.5131 91.5384 31.5044C91.5361 30.1541 91.0706 28.8601 90.244 27.9062C89.4175 26.9524 88.2975 26.4167 87.1298 26.4167ZM25.2314 26.4167C24.3591 26.4167 23.5064 26.716 22.7812 27.2766C22.056 27.8372 21.491 28.634 21.1576 29.5662C20.8241 30.4983 20.7374 31.5239 20.9082 32.5131C21.079 33.5022 21.4998 34.4106 22.1172 35.1231C22.7347 35.8357 23.521 36.3204 24.3768 36.516C25.2326 36.7115 26.1193 36.6091 26.9247 36.2216C27.7301 35.8342 28.418 35.1792 28.9014 34.3395C29.3847 33.4998 29.6418 32.5131 29.64 31.5044C29.6376 30.1541 29.1721 28.8601 28.3456 27.9062C27.5191 26.9524 26.3991 26.4167 25.2314 26.4167Z" fill="#374360"/>
</g>
<defs>
<clipPath id="clip0_1_4543">
<rect width="114" height="41" fill="white"/>
</clipPath>
</defs>
</svg>
