<svg width="114" height="41" viewBox="0 0 114 41" fill="none" xmlns="http://www.w3.org/2000/svg">
<g clip-path="url(#clip0_1_4514)">
<path d="M92.5192 21.555C97.3323 21.555 101.254 25.9055 101.254 31.2448C101.254 33.8156 100.363 36.2875 98.6693 38.0673H109.098V40.8358H2.4957V38.0673H16.7568C13.3698 34.31 13.3698 28.1797 16.7568 24.4224C20.1439 20.6651 25.6701 20.6651 29.0571 24.4224C32.4441 28.1797 32.4441 34.31 29.0571 38.0673H86.369C82.982 34.31 82.982 28.1797 86.369 24.4224C87.9734 22.6426 90.2017 21.555 92.5192 21.555ZM2.4957 30.9482L0 25.4112H5.08053L2.4957 22.6426V17.0067H10.0719L12.5676 14.2382H5.08053L7.57623 8.60222H20.233L17.7373 5.63594H27.8984L30.3941 2.86741H32.9789V5.63594H35.4746L45.6357 8.40447H48.1314V5.63594H50.6271L53.1228 8.40447H70.9492L63.3729 0H65.9578L76.0297 5.63594L73.534 8.40447H81.1102L103.928 14.0404L111.504 19.6763H106.424L108.919 22.4449H114V25.4112L111.504 28.1797H106.424L111.504 31.0471L109.009 33.8156H103.482C104.73 27.092 100.898 20.4673 94.8366 18.9842C88.7756 17.5011 82.8038 21.8516 81.4668 28.5752C81.1102 30.2561 81.1102 32.0359 81.4668 33.7167H33.9593C35.2072 26.9932 31.3745 20.3685 25.3135 18.8853C19.2525 17.4022 13.2807 21.7527 11.9437 28.4763C11.5872 30.1572 11.5872 31.937 11.9437 33.6179H10.1611L2.4957 30.9482ZM92.5192 28.5752C91.1822 28.5752 90.1126 29.7617 90.1126 31.2448C90.1126 32.728 91.1822 33.9145 92.5192 33.9145C93.8561 33.9145 94.9257 32.728 94.9257 31.2448C94.9257 29.7617 93.767 28.5752 92.5192 28.5752ZM22.9961 28.5752C21.6591 28.5752 20.5895 29.7617 20.5895 31.2448C20.5895 32.728 21.6591 33.9145 22.9961 33.9145C24.3331 33.9145 25.3135 32.728 25.3135 31.2448C25.3135 29.7617 24.2439 28.5752 22.9961 28.5752ZM92.5192 25.8067C89.8452 25.8067 87.6169 28.2786 87.6169 31.2448C87.6169 34.2111 89.8452 36.683 92.5192 36.683C95.1931 36.683 97.4214 34.2111 97.4214 31.2448C97.4214 28.1797 95.1931 25.8067 92.5192 25.8067ZM22.9961 25.8067C20.3221 25.8067 18.0938 28.2786 18.0938 31.2448C18.0938 34.2111 20.3221 36.683 22.9961 36.683C25.6701 36.683 27.8984 34.2111 27.8984 31.2448C27.8984 28.1797 25.6701 25.8067 22.9961 25.8067Z" fill="#374360"/>
</g>
<defs>
<clipPath id="clip0_1_4514">
<rect width="114" height="41" fill="white"/>
</clipPath>
</defs>
</svg>
