<svg width="114" height="41" viewBox="0 0 114 41" fill="none" xmlns="http://www.w3.org/2000/svg">
<path fill-rule="evenodd" clip-rule="evenodd" d="M94.8427 24.2676C96.6193 24.26 98.3563 24.7628 99.8236 25.7093C101.291 26.6558 102.419 28.0012 103.058 29.5672C103.698 31.1333 103.818 32.846 103.404 34.4782C102.99 36.1105 102.06 37.5852 100.739 38.7069H109.44V40.8611H4.56V38.7069H25.267C23.9555 37.5822 23.035 36.1088 22.6266 34.4804C22.2183 32.8521 22.3412 31.1451 22.9793 29.584C23.6173 28.0229 24.7406 26.6808 26.2013 25.7343C27.662 24.7878 29.3917 24.2813 31.163 24.2813C32.9342 24.2813 34.6639 24.7878 36.1247 25.7343C37.5854 26.6808 38.7086 28.0229 39.3467 29.584C39.9847 31.1451 40.1077 32.8521 39.6993 34.4804C39.291 36.1088 38.3705 37.5822 37.0589 38.7069H88.9467C87.6349 37.5833 86.7141 36.1106 86.3057 34.4828C85.8972 32.855 86.0202 31.1485 86.6585 29.588C87.2968 28.0276 88.4204 26.6864 89.8813 25.7412C91.3423 24.7959 93.072 24.291 94.8427 24.2928V24.2676ZM6.84 30.1578H15.96L18.24 28.0036H4.56L0 25.8495V12.9248L4.56 8.6165V19.3535L6.84 21.5413V15.0789H77.4844L79.7644 12.9248L70.68 4.30825H54.72L57 12.9248H52.44V4.30825H38.76V12.9248H36.5156V4.30825H34.2V12.9248H31.92V4.30825H18.24L15.96 12.9248H6.84V8.6165L9.12 2.15413L11.4 0H63.84L70.68 2.15413L84.36 12.9248H95.76L107.16 15.0789L111.72 17.233H107.16L109.44 21.5413H111.72L114 23.6954V28.0036H111.72L109.44 30.1578H114L109.44 34.4997H105.708C106.009 32.991 105.955 31.4381 105.548 29.9516C105.142 28.4651 104.393 27.0816 103.356 25.8997C102.319 24.7177 101.019 23.7663 99.5479 23.1134C98.0772 22.4604 96.4721 22.1218 94.8471 22.1218C93.2221 22.1218 91.6171 22.4604 90.1463 23.1134C88.6756 23.7663 87.3754 24.7177 86.3382 25.8997C85.3011 27.0816 84.5526 28.4651 84.146 29.9516C83.7394 31.4381 83.6848 32.991 83.9859 34.4997H42.0286C42.3298 32.991 42.2751 31.4381 41.8685 29.9516C41.4619 28.4651 40.7134 27.0816 39.6763 25.8997C38.6392 24.7177 37.3389 23.7663 35.8682 23.1134C34.3975 22.4604 32.7924 22.1218 31.1674 22.1218C29.5424 22.1218 27.9374 22.4604 26.4666 23.1134C24.9959 23.7663 23.6957 24.7177 22.6585 25.8997C21.6214 27.0816 20.8729 28.4651 20.4663 29.9516C20.0597 31.4381 20.0051 32.991 20.3062 34.4997H11.4L6.84 30.1578ZM94.8427 30.7299C94.46 30.7299 94.086 30.8373 93.768 31.0383C93.45 31.2393 93.2023 31.525 93.0563 31.8591C92.9103 32.1932 92.8725 32.5608 92.9478 32.9152C93.0231 33.2697 93.2081 33.595 93.4792 33.85C93.7504 34.1051 94.0956 34.2783 94.4711 34.3478C94.8466 34.4173 95.2355 34.3799 95.5884 34.2404C95.9414 34.1009 96.2427 33.8656 96.4539 33.5642C96.6652 33.2628 96.7771 32.909 96.7753 32.5475C96.773 32.0647 96.5683 31.6024 96.2061 31.2618C95.8439 30.9212 95.3537 30.7299 94.8427 30.7299ZM31.163 30.7299C30.7803 30.7299 30.4063 30.8373 30.0883 31.0383C29.7703 31.2393 29.5226 31.525 29.3766 31.8591C29.2306 32.1932 29.1928 32.5608 29.2681 32.9152C29.3434 33.2697 29.5284 33.595 29.7996 33.85C30.0707 34.1051 30.4159 34.2783 30.7914 34.3478C31.1669 34.4173 31.5558 34.3799 31.9088 34.2404C32.2617 34.1009 32.563 33.8656 32.7743 33.5642C32.9855 33.2628 33.0974 32.909 33.0956 32.5475C33.0933 32.0661 32.8899 31.6051 32.5296 31.2647C32.1693 30.9244 31.6814 30.7322 31.1719 30.7299H31.163ZM94.8427 28.6095C94.0091 28.6095 93.1943 28.8431 92.5013 29.2808C91.8083 29.7185 91.2684 30.3406 90.9498 31.0684C90.6312 31.7962 90.5483 32.5968 90.7116 33.3691C90.8749 34.1414 91.277 34.8506 91.867 35.4069C92.4571 35.9632 93.2085 36.3416 94.0263 36.4942C94.844 36.6468 95.6913 36.5668 96.4609 36.2643C97.2306 35.9617 97.8879 35.4503 98.3497 34.7946C98.8115 34.139 99.0571 33.3687 99.0553 32.5811C99.053 31.527 98.6081 30.5168 97.8183 29.7722C97.0285 29.0276 95.9584 28.6095 94.8427 28.6095ZM31.1719 28.6095C30.3383 28.6095 29.5235 28.8431 28.8305 29.2808C28.1376 29.7185 27.5976 30.3406 27.279 31.0684C26.9605 31.7962 26.8776 32.5968 27.0408 33.3691C27.2041 34.1414 27.6062 34.8506 28.1962 35.4069C28.7863 35.9632 29.5377 36.3416 30.3555 36.4942C31.1733 36.6468 32.0206 36.5668 32.7902 36.2643C33.5598 35.9617 34.2171 35.4503 34.6789 34.7946C35.1407 34.139 35.3863 33.3687 35.3845 32.5811C35.3822 31.527 34.9373 30.5168 34.1475 29.7722C33.3578 29.0276 32.2876 28.6095 31.1719 28.6095Z" fill="#374360"/>
</svg>
