<svg width="114" height="42" viewBox="0 0 114 42" fill="none" xmlns="http://www.w3.org/2000/svg">
<path d="M89.1321 22.9556C93.9453 22.9556 97.8671 27.1933 97.8671 32.394C97.8671 34.8981 96.9758 37.3059 95.2823 39.0395H109.098V41.7362H2.4957V39.0395H14.9742C11.5872 35.3797 11.5872 29.4084 14.9742 25.7486C18.3612 22.0888 23.8874 22.0888 27.2744 25.7486C30.6615 29.4084 30.6615 35.3797 27.2744 39.0395H82.982C79.595 35.3797 79.5059 29.4084 82.8929 25.7486C84.5864 23.9187 86.8147 22.9556 89.1321 22.9556ZM2.58483 33.5498L0 25.267L2.4957 22.5703L7.57623 22.6667L2.4957 19.9699V14.4802H7.57623L10.0719 11.7835H2.4957L7.57623 3.59709L15.1525 0.900391H60.7881L81.1102 11.6872H73.534L60.8773 3.50078H25.4027L17.8264 8.9905L27.9875 14.4802L30.4832 6.2938H32.9789L30.4832 14.4802H48.2205L45.6357 6.2938H48.1314L50.6271 14.4802H96.2627L106.424 17.2732L111.504 19.9699H106.424L108.919 22.763L114 25.4597V30.8531H108.919L111.415 33.5498L108.919 36.2465H99.6497C101.611 29.89 98.491 22.9556 92.6083 20.8367C86.7256 18.7179 80.3081 22.0888 78.3472 28.4453C77.545 30.9494 77.545 33.6461 78.3472 36.2465H31.8202C33.7811 29.89 30.6615 22.9556 24.7787 20.8367C18.896 18.7179 12.4785 22.0888 10.5176 28.4453C9.7154 30.9494 9.7154 33.7424 10.5176 36.2465H7.57623L2.58483 33.5498ZM89.1321 29.7937C87.7952 29.7937 86.7256 30.9494 86.7256 32.394C86.7256 33.8387 87.7952 34.8981 89.1321 34.8981C90.4691 34.8981 91.5387 33.7424 91.5387 32.394C91.5387 31.0457 90.4691 29.7937 89.1321 29.7937ZM21.2134 29.7937C19.8765 29.7937 18.8069 30.9494 18.8069 32.394C18.8069 33.8387 19.8765 34.8981 21.2134 34.8981C22.5504 34.8981 23.5309 33.7424 23.5309 32.394C23.5309 31.0457 22.4613 29.7937 21.2134 29.7937ZM89.1321 27.0006C86.4582 27.0006 84.2299 29.4084 84.2299 32.2977C84.2299 35.1871 86.4582 37.5948 89.1321 37.5948C91.8061 37.5948 94.0344 35.1871 94.0344 32.2977C94.0344 29.4084 91.8061 27.0006 89.1321 27.0006ZM21.2134 27.0006C18.5395 27.0006 16.3112 29.4084 16.3112 32.2977C16.3112 35.1871 18.5395 37.5948 21.2134 37.5948C23.8874 37.5948 26.1157 35.1871 26.1157 32.2977C26.1157 29.4084 23.8874 27.0006 21.2134 27.0006Z" fill="#374360"/>
</svg>
