<svg xmlns="http://www.w3.org/2000/svg" width="20" height="19" viewBox="0 0 20 19" fill="none">
  <path d="M14.556 4.96364C14.556 7.12992 12.5986 9.02727 10.0014 9.02727C7.40426 9.02727 5.44687 7.12992 5.44687 4.96364C5.44687 2.79735 7.40426 0.9 10.0014 0.9C12.5986 0.9 14.556 2.79735 14.556 4.96364Z" fill="white" stroke="white" stroke-width="1.8"/>
  <path d="M19.1 14.8909C19.1 14.951 19.0638 15.1538 18.6596 15.4701C18.2663 15.7778 17.6411 16.0941 16.7883 16.3763C15.0923 16.9376 12.6922 17.3 10 17.3C7.30784 17.3 4.90773 16.9376 3.21167 16.3763C2.35886 16.0941 1.73373 15.7778 1.34042 15.4701C0.936207 15.1538 0.9 14.951 0.9 14.8909C0.9 14.8308 0.936207 14.6279 1.34042 14.3117C1.73373 14.004 2.35886 13.6876 3.21167 13.4054C4.90773 12.8442 7.30784 12.4818 10 12.4818C12.6922 12.4818 15.0923 12.8442 16.7883 13.4054C17.6411 13.6876 18.2663 14.004 18.6596 14.3117C19.0638 14.6279 19.1 14.8308 19.1 14.8909Z" fill="white" stroke="white" stroke-width="1.8"/>
</svg>